<svg xmlns="http://www.w3.org/2000/svg" style="display: none;">
  
    <symbol id="icon-bulb" viewBox="0 0 512 512">
      <path d="m256 0c-97 0-176 79-176 176c0 64 59 133 80 193c33 89 29 143 96 143c68 0 63-53 96-143c21-60 80-129 80-193c0-97-79-176-176-176z m41 435l-79 10c-3-8-6-18-9-31c0 0-1 0-1 0l99-12c-1 4-2 9-4 14c-2 7-4 13-6 19z m-93-36c-3-10-6-20-10-31l124 0c-2 6-4 12-5 17z m52 81c-16 0-24-2-32-20l68-8c-10 26-17 28-36 28z m75-144l-150 0c-8-17-17-35-27-51c-20-38-42-76-42-109c0-79 65-144 144-144c79 0 144 65 144 144c0 32-22 71-42 109c-10 17-19 34-27 51z m-75-256c-53 0-96 43-96 96c0 4 4 8 8 8c4 0 8-4 8-8c0-44 36-80 80-80c4 0 8-4 8-8c0-4-4-8-8-8z"/>
    </symbol>
  
</svg>
