<svg xmlns="http://www.w3.org/2000/svg" style="display: none;">
  
    <symbol id="icon-light-switch-icon" viewBox="0 0 512 512">
      <path d="m264 61c4-4 4-11 0-15-5-4-11-4-16 0-4 4-4 11 0 15 5 4 11 4 16 0z m-16 390c-4 4-4 11 0 15 5 4 11 4 16 0 4-4 4-11 0-15-5-4-11-4-16 0z m147-451l-278 0c-18 0-33 14-33 32l0 448c0 18 15 32 33 32l278 0c18 0 33-14 33-32l0-448c0-18-15-32-33-32z m11 480c0 6-5 11-11 11l-278 0c-6 0-11-5-11-11l0-448c0-6 5-11 11-11l278 0c6 0 11 5 11 11z m-96-363l-108 0c-6 0-10 5-10 11l0 256c0 6 4 11 10 11l108 0c6 0 10-5 10-11l0-256c0-6-4-11-10-11z m-97 150l86 0 0 74-86 0z m86-128l0 106-86 0 0-106z m-86 234l0-10 86 0 0 10z m43-149c6 0 11-5 11-11l0-42c0-6-5-11-11-11-6 0-11 5-11 11l0 42c0 6 5 11 11 11z m0 53c-18 0-32 12-32 27 0 15 14 27 32 27 18 0 32-12 32-27 0-15-14-27-32-27z m0 32c-7 0-11-3-11-5 0-2 4-5 11-5 7 0 11 3 11 5 0 2-4 5-11 5z"/>
    </symbol>
  
</svg>
