<svg xmlns="http://www.w3.org/2000/svg" style="display: none;">
  
    <symbol id="icon-more-icon" viewBox="0 0 512 512">
      <path d="m82 290c19 0 34-15 34-34 0-19-15-34-34-34-19 0-34 15-34 34 0 19 15 34 34 34z m0 30c-35 0-64-29-64-64 0-35 29-64 64-64 36 0 64 29 64 64 0 35-28 64-64 64z m348-30c19 0 34-15 34-34 0-19-15-34-34-34-19 0-34 15-34 34 0 19 15 34 34 34z m0 30c-36 0-64-29-64-64 0-35 28-64 64-64 35 0 64 29 64 64 0 35-29 64-64 64z m-174-30c19 0 34-15 34-34 0-19-15-34-34-34-19 0-34 15-34 34 0 19 15 34 34 34z m0 30c-35 0-64-29-64-64 0-35 29-64 64-64 35 0 64 29 64 64 0 35-29 64-64 64z"/>
    </symbol>
  
</svg>
