<svg xmlns="http://www.w3.org/2000/svg" style="display: none;">
  
    <symbol id="icon-outlet-icon" viewBox="0 0 512 512">
      <path d="m433 67c0-37-31-67-68-67l-218 0c-37 0-68 30-68 67l0 378c0 37 31 67 68 67l218 0c37 0 68-30 68-67z m-19 377c0 27-22 49-49 49l-218 0c-27 0-49-22-49-49l0-376c0-27 22-49 49-49l218 0c27 0 49 22 49 49l0 376z m-189-319l13 0 0 26-13 0z m49 0l13 0 0 26-13 0z m45-35l-1-1-2 0c0 0-37 0-60 0l-61 0-2 1c-19 18-29 41-29 67 0 25 10 49 29 66l1 2 124 0 1-2c19-17 29-41 29-66 0-26-10-49-29-67z m-121 124c-15-15-23-36-23-57 0-22 8-42 24-58l57 0c18 0 44 0 55 0l3 0c15 16 23 36 23 58 0 21-8 42-23 57z m48-30l0 13 20 0 0-13c0-14-20-13-20 0z m-21 139l13 0 0 26-13 0z m49 0l13 0 0 26-13 0z m45-35l-1-1-123 0-2 1c-19 18-29 41-29 67 0 25 10 49 29 66l1 1 124 0 1-1c19-17 29-41 29-66 0-26-10-49-29-67z m-65 124l-56 0c-15-15-23-35-23-57 0-22 8-43 24-58l57 0c20 0 49 0 57 1 16 15 24 35 24 57 0 22-8 42-23 57z m-8-30l0 13 20 0 0-13c0-14-20-13-20 0z m27-124c0-9-8-17-17-17-9 0-17 8-17 17 0 9 8 16 17 16 9 0 17-7 17-16z m-4 0c0 7-6 13-13 13-3 0-7-1-9-3l19-19c2 2 3 6 3 9z m-13-14c3 0 6 1 8 3l-19 19c-2-3-2-5-2-8 0-8 6-14 13-14z"/>
    </symbol>
  
</svg>
