<svg xmlns="http://www.w3.org/2000/svg" style="display: none;">
  
    <symbol id="icon-security-icon" viewBox="0 0 512 512">
      <path d="m471 99c1-4-2-8-5-9-67-29-133-59-200-89-3-1-6-1-9 0-67 30-134 60-201 89-3 1-5 4-5 8 1 45 0 91 1 137 0 62 20 123 58 174 36 49 83 84 141 102 7 2 14 2 20 0 54-17 102-50 136-95 42-52 64-118 64-184l0-60c0-24 0-49 0-73z m-36 88l0 49c0 55-18 109-53 153-28 37-68 65-113 78-5 2-11 2-16 0-47-14-88-44-117-84-31-42-48-93-49-145 0-38 0-75 0-113 0-3 2-6 5-6 55-25 110-49 165-74 3-2 6-2 8 0 55 25 111 49 166 73 3 1 4 4 4 8l0 61z m-114 69l-13 0 0-37c0-26-21-47-47-47-26 0-47 21-47 47l0 37-13 0c-3 0-5 2-5 5l0 74c0 3 2 5 5 5l120 0c3 0 6-2 6-5l0-74c0-3-3-5-6-5z m-50 55l-20 0 7-18c-5-2-8-7-7-12 1-5 5-8 10-8 5 0 9 3 10 8 1 5-2 10-6 12z m19-55l-58 0 0-37c0-16 13-29 29-29 16 0 29 13 29 29l0 37z"/>
    </symbol>
  
</svg>
