<?xml version="1.0" encoding="UTF-8" standalone="no"?>
<svg
   xmlns:dc="http://purl.org/dc/elements/1.1/"
   xmlns:cc="http://creativecommons.org/ns#"
   xmlns:rdf="http://www.w3.org/1999/02/22-rdf-syntax-ns#"
   xmlns:svg="http://www.w3.org/2000/svg"
   xmlns="http://www.w3.org/2000/svg"
   xmlns:sodipodi="http://sodipodi.sourceforge.net/DTD/sodipodi-0.dtd"
   xmlns:inkscape="http://www.inkscape.org/namespaces/inkscape"
   id="svg4549"
   version="1.1"
   viewBox="0 0 60.854165 21.166667"
   height="80"
   width="230"
   sodipodi:docname="smarthomehightech.svg"
   inkscape:version="0.92.2 (5c3e80d, 2017-08-06)">
  <sodipodi:namedview
     pagecolor="#ffffff"
     bordercolor="#666666"
     borderopacity="1"
     objecttolerance="10"
     gridtolerance="10"
     guidetolerance="10"
     inkscape:pageopacity="0"
     inkscape:pageshadow="2"
     inkscape:window-width="1332"
     inkscape:window-height="480"
     id="namedview5353"
     showgrid="false"
     inkscape:zoom="3"
     inkscape:cx="122.0582"
     inkscape:cy="40"
     inkscape:window-x="2128"
     inkscape:window-y="174"
     inkscape:window-maximized="0"
     inkscape:current-layer="svg4549" />
  <defs
     id="defs4543" />
  <metadata
     id="metadata4546">
    <rdf:RDF>
      <cc:Work
         rdf:about="">
        <dc:format>image/svg+xml</dc:format>
        <dc:type
           rdf:resource="http://purl.org/dc/dcmitype/StillImage" />
        <dc:title />
      </cc:Work>
    </rdf:RDF>
  </metadata>
  <g
     transform="translate(0,-275.83332)"
     id="layer1">
    <g
       id="text5096"
       style="font-style:normal;font-weight:normal;font-size:10.86631012px;line-height:1.25;font-family:sans-serif;letter-spacing:0px;word-spacing:0px;fill:#000000;fill-opacity:1;stroke:none;stroke-width:0.27165774"
       aria-label="SmartHome">
      <path
         id="path5229"
         style="font-style:normal;font-variant:normal;font-weight:900;font-stretch:normal;font-size:11.28888893px;font-family:Roboto;-inkscape-font-specification:'Roboto Heavy';stroke-width:0.27165774;fill:#ffffff"
         d="m 4.3931859,281.83604 q 0,-0.42444 -0.3031684,-0.66146 -0.2976563,-0.23703 -1.0528212,-0.49058 -0.7551649,-0.25356 -1.2347222,-0.49059 -1.55993926,-0.76619 -1.55993926,-2.10564 0,-0.66697 0.3858507,-1.17409 0.39136286,-0.51263 1.10243056,-0.79375 0.7110677,-0.28663 1.5985243,-0.28663 0.865408,0 1.5489149,0.30868 0.6890191,0.30868 1.0693577,0.88195 0.3803385,0.56775 0.3803385,1.30086 H 4.3986981 q 0,-0.49058 -0.3031685,-0.76067 -0.2976562,-0.2701 -0.8102864,-0.2701 -0.5181424,0 -0.8213108,0.23151 -0.2976562,0.226 -0.2976562,0.57878 0,0.30868 0.3307291,0.56224 0.3307292,0.24804 1.1630643,0.51814 0.832335,0.26458 1.3670139,0.57326 1.300868,0.74966 1.300868,2.06706 0,1.05282 -0.79375,1.65365 -0.79375,0.60082 -2.1773003,0.60082 -0.9756511,0 -1.7694011,-0.34726 Q 0.79926227,283.37944 0.39687512,282.7731 1.1920929e-7,282.16125 1.1920929e-7,281.3675 H 1.9402779 q 0,0.64492 0.3307292,0.9536 0.3362413,0.30317 1.0858941,0.30317 0.4795573,0 0.7551649,-0.20395 0.2811198,-0.20946 0.2811198,-0.58428 z" />
      <path
         id="path5231"
         style="font-style:normal;font-variant:normal;font-weight:900;font-stretch:normal;font-size:11.28888893px;font-family:Roboto;-inkscape-font-specification:'Roboto Heavy';stroke-width:0.27165774;fill:#ffffff"
         d="m 9.0013457,278.00509 0.060634,0.70004 q 0.6338976,-0.81028 1.7032556,-0.81028 1.129991,0 1.526866,0.89848 0.606337,-0.89848 1.752865,-0.89848 1.813498,0 1.863107,2.19383 v 3.88056 h -1.863107 v -3.7648 q 0,-0.45751 -0.154341,-0.66697 -0.15434,-0.20946 -0.562239,-0.20946 -0.551216,0 -0.821311,0.49058 l 0.0055,0.0772 v 4.07348 h -1.863108 v -3.75378 q 0,-0.46853 -0.148828,-0.67799 -0.148828,-0.20946 -0.5677514,-0.20946 -0.5346789,0 -0.8157987,0.49058 v 4.15065 H 7.2595055 v -5.96415 z" />
      <path
         id="path5233"
         style="font-style:normal;font-variant:normal;font-weight:900;font-stretch:normal;font-size:11.28888893px;font-family:Roboto;-inkscape-font-specification:'Roboto Heavy';stroke-width:0.27165774;fill:#ffffff"
         d="m 20.328819,283.96924 q -0.09922,-0.1819 -0.176389,-0.53468 -0.512631,0.64492 -1.43316,0.64492 -0.843359,0 -1.43316,-0.50712 -0.5898,-0.51263 -0.5898,-1.28433 0,-0.97014 0.71658,-1.46623 0.71658,-0.49609 2.083593,-0.49609 h 0.573264 v -0.3142 q 0,-0.82131 -0.711067,-0.82131 -0.661459,0 -0.661459,0.65044 h -1.857595 q 0,-0.86541 0.733116,-1.4056 0.738629,-0.54019 1.879644,-0.54019 1.141016,0 1.802474,0.55672 0.661459,0.55673 0.677995,1.52687 v 2.64032 q 0.01102,0.82131 0.253559,1.25677 v 0.0937 z m -1.163065,-1.21268 q 0.347266,0 0.573264,-0.14882 0.231511,-0.14883 0.330729,-0.33624 v -0.95361 h -0.540191 q -0.970138,0 -0.970138,0.87092 0,0.25356 0.170876,0.41341 0.170877,0.15434 0.43546,0.15434 z" />
      <path
         id="path5235"
         style="font-style:normal;font-variant:normal;font-weight:900;font-stretch:normal;font-size:11.28888893px;font-family:Roboto;-inkscape-font-specification:'Roboto Heavy';stroke-width:0.27165774;fill:#ffffff"
         d="m 26.574088,279.6863 -0.611849,-0.0441 q -0.876432,0 -1.124479,0.55121 v 3.77583 h -1.857595 v -5.96415 h 1.74184 l 0.06063,0.76619 q 0.468533,-0.87643 1.30638,-0.87643 0.297656,0 0.518142,0.0661 z" />
      <path
         id="path5237"
         style="font-style:normal;font-variant:normal;font-weight:900;font-stretch:normal;font-size:11.28888893px;font-family:Roboto;-inkscape-font-specification:'Roboto Heavy';stroke-width:0.27165774;fill:#ffffff"
         d="m 29.693968,276.52232 v 1.48277 h 0.981164 v 1.28984 h -0.981164 v 2.72852 q 0,0.33624 0.121268,0.46853 0.121267,0.13229 0.479557,0.13229 0.275608,0 0.463021,-0.0331 v 1.32843 q -0.501606,0.15985 -1.047309,0.15985 -0.959115,0 -1.416623,-0.452 -0.457509,-0.45199 -0.457509,-1.37252 v -2.96003 h -0.760677 v -1.28984 h 0.760677 v -1.48277 z" />
      <path
         id="path5239"
         style="font-style:normal;font-variant:normal;font-weight:300;font-stretch:normal;font-size:11.28888893px;font-family:Roboto;-inkscape-font-specification:'Roboto Light';stroke-width:0.27165774;fill:#ffffff"
         d="m 37.851953,283.96924 h -0.683507 v -3.84748 h -4.586111 v 3.84748 H 31.90434 v -8.0257 h 0.677995 v 3.60495 h 4.586111 v -3.60495 h 0.683507 z" />
      <path
         id="path5241"
         style="font-style:normal;font-variant:normal;font-weight:300;font-stretch:normal;font-size:11.28888893px;font-family:Roboto;-inkscape-font-specification:'Roboto Light';stroke-width:0.27165774;fill:#ffffff"
         d="m 39.367796,280.89897 q 0,-0.8599 0.330729,-1.54892 0.336241,-0.68901 0.942578,-1.06935 0.611849,-0.38585 1.38355,-0.38585 1.190625,0 1.929254,0.83784 0.738628,0.83234 0.738628,2.21038 v 0.1378 q 0,0.86541 -0.336241,1.55994 -0.330729,0.68902 -0.937066,1.06384 -0.606337,0.37483 -1.38355,0.37483 -1.185113,0 -1.929254,-0.83233 -0.738628,-0.83785 -0.738628,-2.21589 z m 0.661458,0.1819 q 0,1.06936 0.551215,1.75838 0.556728,0.6835 1.455209,0.6835 0.892968,0 1.444184,-0.6835 0.556727,-0.68902 0.556727,-1.8135 v -0.12678 q 0,-0.68351 -0.253559,-1.25126 -0.253559,-0.56775 -0.711068,-0.87643 -0.457508,-0.31419 -1.047309,-0.31419 -0.881944,0 -1.438671,0.69453 -0.556728,0.68902 -0.556728,1.80798 z" />
      <path
         id="path5243"
         style="font-style:normal;font-variant:normal;font-weight:300;font-stretch:normal;font-size:11.28888893px;font-family:Roboto;-inkscape-font-specification:'Roboto Light';stroke-width:0.27165774;fill:#ffffff"
         d="m 46.660372,278.00509 0.02205,0.97014 q 0.330729,-0.54019 0.826823,-0.81029 0.496093,-0.27009 1.10243,-0.27009 1.411111,0 1.79145,1.15755 0.319705,-0.55673 0.854383,-0.85439 0.534679,-0.30316 1.179601,-0.30316 1.918229,0 1.956814,2.09461 v 3.97978 h -0.661458 v -3.93017 q -0.0055,-0.79926 -0.347266,-1.18511 -0.336241,-0.38585 -1.10243,-0.38585 -0.711068,0.011 -1.201649,0.46302 -0.490582,0.44649 -0.545704,1.09141 v 3.9467 h -0.661458 v -3.97978 q -0.0055,-0.76619 -0.363802,-1.14101 -0.352778,-0.38034 -1.091406,-0.38034 -0.622873,0 -1.069358,0.35829 -0.446484,0.35278 -0.661458,1.05282 v 4.09002 h -0.661459 v -5.96415 z" />
      <path
         id="path5245"
         style="font-style:normal;font-variant:normal;font-weight:300;font-stretch:normal;font-size:11.28888893px;font-family:Roboto;-inkscape-font-specification:'Roboto Light';stroke-width:0.27165774;fill:#ffffff"
         d="m 58.37921,284.07948 q -0.760677,0 -1.378038,-0.37483 -0.611849,-0.37482 -0.953602,-1.04179 -0.341754,-0.67248 -0.341754,-1.50482 v -0.23702 q 0,-0.8599 0.330729,-1.54892 0.336242,-0.68902 0.931554,-1.08038 0.595313,-0.39687 1.289844,-0.39687 1.085894,0 1.719792,0.74414 0.639409,0.73863 0.639409,2.02296 v 0.36931 h -4.255382 v 0.12678 q 0,1.01424 0.578776,1.69223 0.584289,0.67248 1.466233,0.67248 0.529167,0 0.931554,-0.19292 0.407899,-0.19293 0.738628,-0.61736 l 0.413412,0.31419 q -0.727604,1.05282 -2.111155,1.05282 z m -0.121267,-5.62239 q -0.744141,0 -1.256771,0.5457 -0.507118,0.5457 -0.617361,1.46623 h 3.577387 v -0.0717 q -0.02756,-0.85989 -0.490582,-1.40008 -0.46302,-0.54019 -1.212673,-0.54019 z" />
    </g>
    <g
       id="text5096-4"
       style="font-style:normal;font-weight:normal;font-size:8.26436234px;line-height:1.25;font-family:sans-serif;letter-spacing:0px;word-spacing:0px;fill:#000000;fill-opacity:1;stroke:none;stroke-width:0.20660901"
       aria-label="High     Tech">
      <path
         id="path5248"
         style="font-style:normal;font-variant:normal;font-weight:300;font-stretch:normal;font-size:11.28888893px;font-family:Roboto;-inkscape-font-specification:'Roboto Light';stroke-width:0.20660901;fill:#ffffff"
         d="m 5.9476129,294.62424 h -0.683507 v -3.84749 H 0.67799482 v 3.84749 H 2.2351742e-8 v -8.0257 H 0.67799482 v 3.60495 H 5.2641059 v -3.60495 h 0.683507 z" />
      <path
         id="path5250"
         style="font-style:normal;font-variant:normal;font-weight:300;font-stretch:normal;font-size:11.28888893px;font-family:Roboto;-inkscape-font-specification:'Roboto Light';stroke-width:0.20660901;fill:#ffffff"
         d="M 8.5658856,294.62424 H 7.9044273 v -5.96415 h 0.6614583 z m -0.7772135,-7.68946 q 0,-0.18741 0.1212674,-0.31419 0.1212673,-0.13229 0.3307291,-0.13229 0.2094618,0 0.3307292,0.13229 0.1267795,0.12678 0.1267795,0.31419 0,0.18742 -0.1267795,0.3142 -0.1212674,0.12678 -0.3307292,0.12678 -0.2094618,0 -0.3307291,-0.12678 -0.1212674,-0.12678 -0.1212674,-0.3142 z" />
      <path
         id="path5252"
         style="font-style:normal;font-variant:normal;font-weight:300;font-stretch:normal;font-size:11.28888893px;font-family:Roboto;-inkscape-font-specification:'Roboto Light';stroke-width:0.20660901;fill:#ffffff"
         d="m 10.098264,291.58704 q 0,-1.40009 0.617361,-2.21588 0.622873,-0.82132 1.686718,-0.82132 1.218186,0 1.852084,0.97014 l 0.03307,-0.85989 h 0.617361 v 5.84288 q 0,1.15204 -0.644922,1.82452 -0.644922,0.67248 -1.747353,0.67248 -0.622873,0 -1.190625,-0.28111 -0.562239,-0.27561 -0.887456,-0.73863 l 0.369314,-0.39688 q 0.700043,0.8599 1.66467,0.8599 0.826823,0 1.289844,-0.49058 0.463021,-0.48507 0.479557,-1.35048 v -0.74965 q -0.633897,0.88194 -1.846571,0.88194 -1.036285,0 -1.66467,-0.82682 -0.628385,-0.82683 -0.628385,-2.23242 z m 0.66697,0.11576 q 0,1.14101 0.457509,1.80247 0.457508,0.65595 1.289843,0.65595 1.218186,0 1.725304,-1.09141 v -2.77261 q -0.23151,-0.57327 -0.66697,-0.87092 -0.43546,-0.30317 -1.047309,-0.30317 -0.832335,0 -1.295356,0.65594 -0.463021,0.65044 -0.463021,1.92375 z" />
      <path
         id="path5254"
         style="font-style:normal;font-variant:normal;font-weight:300;font-stretch:normal;font-size:11.28888893px;font-family:Roboto;-inkscape-font-specification:'Roboto Light';stroke-width:0.20660901;fill:#ffffff"
         d="m 17.2806,289.66881 q 0.325217,-0.53468 0.832335,-0.82682 0.507118,-0.29215 1.107942,-0.29215 0.959115,0 1.427648,0.5402 0.468533,0.54019 0.474045,1.62057 v 3.91363 h -0.655946 v -3.91914 q -0.0055,-0.79927 -0.341754,-1.19063 -0.330729,-0.39136 -1.063845,-0.39136 -0.611849,0 -1.085894,0.38585 -0.468533,0.38034 -0.694531,1.03077 v 4.08451 h -0.655947 v -8.46667 H 17.2806 Z" />
      <path
         id="path5256"
         style="font-style:normal;font-variant:normal;font-weight:900;font-stretch:normal;font-size:11.28888893px;font-family:Roboto;-inkscape-font-specification:'Roboto Heavy';stroke-width:0.20660901;fill:#ffffff"
         d="m 42.647527,288.09234 h -2.408811 v 6.5319 H 38.30395 v -6.5319 h -2.364713 v -1.4938 h 6.70829 z" />
      <path
         id="path5258"
         style="font-style:normal;font-variant:normal;font-weight:900;font-stretch:normal;font-size:11.28888893px;font-family:Roboto;-inkscape-font-specification:'Roboto Heavy';stroke-width:0.20660901;fill:#ffffff"
         d="m 45.783941,294.73448 q -1.372526,0 -2.221398,-0.8158 -0.848871,-0.82131 -0.848871,-2.1332 v -0.15434 q 0,-0.91502 0.336241,-1.61506 0.341753,-0.70005 0.992187,-1.08038 0.650434,-0.38586 1.543403,-0.38586 1.256771,0 1.984375,0.78273 0.727604,0.77721 0.727604,2.17179 v 0.72209 H 44.60434 q 0.09922,0.50161 0.43546,0.78824 0.336241,0.28663 0.87092,0.28663 0.881945,0 1.378038,-0.61736 l 0.848872,1.00321 q -0.347266,0.47956 -0.986675,0.76619 -0.633898,0.28112 -1.367014,0.28112 z M 45.574479,289.983 q -0.815799,0 -0.970139,1.08039 h 1.874132 v -0.14332 q 0.01102,-0.44648 -0.225998,-0.68902 -0.237023,-0.24805 -0.677995,-0.24805 z" />
      <path
         id="path5260"
         style="font-style:normal;font-variant:normal;font-weight:900;font-stretch:normal;font-size:11.28888893px;font-family:Roboto;-inkscape-font-specification:'Roboto Heavy';stroke-width:0.20660901;fill:#ffffff"
         d="m 51.5717,293.30132 q 0.391363,0 0.606337,-0.20946 0.214974,-0.21498 0.209462,-0.59531 h 1.74184 q 0,0.98116 -0.705555,1.60954 -0.700044,0.62839 -1.807986,0.62839 -1.300868,0 -2.050521,-0.8158 -0.749653,-0.8158 -0.749653,-2.25998 v -0.0772 q 0,-0.90399 0.330729,-1.59301 0.336241,-0.69453 0.964627,-1.06385 0.628385,-0.37483 1.488281,-0.37483 1.163064,0 1.846571,0.64493 0.683507,0.64492 0.683507,1.74735 h -1.74184 q 0,-0.46302 -0.225998,-0.71107 -0.225999,-0.24805 -0.606337,-0.24805 -0.722092,0 -0.843359,0.92053 -0.03859,0.29215 -0.03859,0.80478 0,0.89848 0.214974,1.24574 0.214974,0.34727 0.683507,0.34727 z" />
      <path
         id="path5262"
         style="font-style:normal;font-variant:normal;font-weight:900;font-stretch:normal;font-size:11.28888893px;font-family:Roboto;-inkscape-font-specification:'Roboto Heavy';stroke-width:0.20660901;fill:#ffffff"
         d="m 56.731078,289.2995 q 0.595312,-0.74966 1.521354,-0.74966 0.986675,0 1.488281,0.58429 0.501606,0.58429 0.51263,1.72531 v 3.7648 h -1.863107 v -3.72071 q 0,-0.47404 -0.192925,-0.69453 -0.192926,-0.226 -0.655947,-0.226 -0.573264,0 -0.810286,0.36381 v 4.27743 h -1.857596 v -8.46667 h 1.857596 z" />
    </g>
    <g
       id="g10"
       transform="matrix(0.01843422,0,0,0.01843407,23.812499,286.4059)">
      <g
         id="g8">
        <path
           id="path2"
           d="m 167.295,287.88 c -0.771,0.673 -1.224,1.653 -1.224,2.693 V 395.25 c 0,1.53 0.979,2.876 2.424,3.366 l 67.883,22.632 c 0.367,0.122 0.747,0.184 1.126,0.184 0.734,0 1.469,-0.233 2.069,-0.674 0.93,-0.673 1.481,-1.738 1.481,-2.876 V 300.513 c 0,-1.763 -1.285,-3.256 -3.036,-3.514 l -67.883,-9.939 c -1.016,-0.159 -2.056,0.148 -2.84,0.82 z"
           style="fill:#ffffff" />
        <path
           id="path4"
           d="m 132.387,281.589 -47.846,-6.977 c -1.016,-0.159 -2.057,0.159 -2.828,0.82 -0.783,0.673 -1.224,1.652 -1.224,2.692 v 88.582 c 0,1.53 0.979,2.877 2.424,3.366 l 47.846,15.948 c 0.368,0.123 0.747,0.184 1.114,0.184 0.734,0 1.469,-0.232 2.081,-0.673 0.918,-0.673 1.469,-1.738 1.469,-2.876 V 285.09 c -0.001,-1.763 -1.286,-3.256 -3.036,-3.501 z"
           style="fill:#ffffff" />
        <path
           id="path6"
           d="M 573.174,203.669 424.678,4.843 c 0,0 -1.419,-2.24 -4.7,-3.55 -3.28,-1.322 -6.475,-0.392 -6.475,-0.392 L 180.184,60.694 V 40.057 c 0,-4.957 -3.415,-9.253 -8.237,-10.379 l -19.499,-4.504 c 0,0 -1.261,-0.343 -3.036,-0.245 -1.774,0.098 -2.913,0.575 -2.913,0.575 l -35.166,12.46 c -4.247,1.505 -7.087,5.52 -7.087,10.024 v 32.179 l -36.928,9.449 c -2.975,0.771 -5.472,2.778 -6.867,5.52 L 1.15,212.666 c -1.653,3.268 -1.518,7.148 0.367,10.282 1.885,3.133 5.251,5.08 8.911,5.166 l 28.103,0.587 v 208.558 c 0,3.978 2.203,7.613 5.728,9.437 L 287.92,573.489 c 0,0 2.118,1.176 4.896,1.212 2.778,0.024 4.921,-1.212 4.921,-1.212 L 533.835,450.526 c 3.513,-1.836 5.716,-5.459 5.728,-9.437 l 0.416,-222.096 23.917,1.652 c 0,0 6.255,0.71 9.78,-5.018 3.892,-6.266 -0.502,-11.958 -0.502,-11.958 z M 282.205,546.512 59.828,430.795 V 229.141 l 177.468,3.733 c 0,0 0,0 0.012,0 h 0.024 l 44.884,0.808 v 312.831 h -0.011 z M 530.102,196.986 c -2.95,-0.208 -5.839,0.82 -7.993,2.828 -2.154,2.007 -3.378,4.834 -3.391,7.772 l -0.416,227.041 -60.942,31.751 V 269.606 c 0,-1.004 -0.417,-1.946 -1.151,-2.62 -0.734,-0.674 -1.701,-1.003 -2.692,-0.918 l -58.63,4.872 c -1.836,0.159 -3.256,1.701 -3.256,3.537 v 226.11 L 303.478,546.5 V 223.229 c 0,-5.814 -4.651,-10.539 -10.453,-10.649 L 260.124,211.98 415.62,28.307 542.231,197.819 Z"
           style="fill:#ffffff" />
      </g>
    </g>
    <g
       id="g12"
       transform="matrix(0.02304278,0,0,0.02304259,31.749998,283.75738)" />
    <g
       id="g14"
       transform="matrix(0.02304278,0,0,0.02304259,31.749998,283.75738)" />
    <g
       id="g16"
       transform="matrix(0.02304278,0,0,0.02304259,31.749998,283.75738)" />
    <g
       id="g18"
       transform="matrix(0.02304278,0,0,0.02304259,31.749998,283.75738)" />
    <g
       id="g20"
       transform="matrix(0.02304278,0,0,0.02304259,31.749998,283.75738)" />
    <g
       id="g22"
       transform="matrix(0.02304278,0,0,0.02304259,31.749998,283.75738)" />
    <g
       id="g24"
       transform="matrix(0.02304278,0,0,0.02304259,31.749998,283.75738)" />
    <g
       id="g26"
       transform="matrix(0.02304278,0,0,0.02304259,31.749998,283.75738)" />
    <g
       id="g28"
       transform="matrix(0.02304278,0,0,0.02304259,31.749998,283.75738)" />
    <g
       id="g30"
       transform="matrix(0.02304278,0,0,0.02304259,31.749998,283.75738)" />
    <g
       id="g32"
       transform="matrix(0.02304278,0,0,0.02304259,31.749998,283.75738)" />
    <g
       id="g34"
       transform="matrix(0.02304278,0,0,0.02304259,31.749998,283.75738)" />
    <g
       id="g36"
       transform="matrix(0.02304278,0,0,0.02304259,31.749998,283.75738)" />
    <g
       id="g38"
       transform="matrix(0.02304278,0,0,0.02304259,31.749998,283.75738)" />
    <g
       id="g40"
       transform="matrix(0.02304278,0,0,0.02304259,31.749998,283.75738)" />
  </g>
</svg>
