<?xml version="1.0" encoding="UTF-8" standalone="no"?>
<svg
   xmlns:dc="http://purl.org/dc/elements/1.1/"
   xmlns:cc="http://creativecommons.org/ns#"
   xmlns:rdf="http://www.w3.org/1999/02/22-rdf-syntax-ns#"
   xmlns:svg="http://www.w3.org/2000/svg"
   xmlns="http://www.w3.org/2000/svg"
   id="svg857"
   version="1.1"
   viewBox="0 0 60.854165 21.166667"
   height="80"
   width="230">
  <defs
     id="defs851" />
  <metadata
     id="metadata854">
    <rdf:RDF>
      <cc:Work
         rdf:about="">
        <dc:format>image/svg+xml</dc:format>
        <dc:type
           rdf:resource="http://purl.org/dc/dcmitype/StillImage" />
        <dc:title></dc:title>
      </cc:Work>
    </rdf:RDF>
  </metadata>
  <g
     transform="translate(0,-275.83332)"
     id="layer1">
    <g
       id="text1404"
       style="font-style:normal;font-weight:normal;font-size:10.58329487px;line-height:1.25;font-family:sans-serif;letter-spacing:0px;word-spacing:0px;fill:#ffffff;fill-opacity:1;stroke:none;stroke-width:0.26458237"
       transform="scale(0.9999964,1.0000036)"
       aria-label="Smart Home">
      <path
         id="path1604"
         style="font-style:normal;font-variant:normal;font-weight:300;font-stretch:normal;font-family:Roboto;-inkscape-font-specification:'Roboto Light';stroke-width:0.26458237;fill:#ffffff"
         d="m 4.7542145,283.13934 q 0,-0.62528 -0.4392481,-0.98702 -0.4392481,-0.3669 -1.6071312,-0.69246 -1.1678831,-0.33073 -1.7053161,-0.7183 -0.76480838,-0.54777 -0.76480838,-1.4366 0,-0.86299 0.70796455,-1.40042 0.71313213,-0.5426 1.81900383,-0.5426 0.7493055,0 1.3384147,0.28938 0.5942768,0.28939 0.9198372,0.80615 0.3255603,0.51676 0.3255603,1.15238 H 4.7077059 q 0,-0.76997 -0.5270977,-1.23506 -0.5270977,-0.47025 -1.4159291,-0.47025 -0.8629933,0 -1.3745881,0.38757 -0.51159485,0.3824 -0.51159485,1.00252 0,0.5736 0.45991855,0.93534 0.4599186,0.36173 1.472773,0.64078 1.0128544,0.27389 1.5347845,0.57361 0.52193,0.29455 0.7854789,0.70796 0.2635488,0.41341 0.2635488,0.97668 0,0.88884 -0.7131322,1.42627 -0.7079645,0.53743 -1.87068,0.53743 -0.7958142,0 -1.4624377,-0.28422 Q 0.68729405,284.52426 0.34106321,284.01267 0,283.50107 0,282.83962 h 0.6356178 q 0,0.79581 0.5942768,1.25573 0.5942768,0.45992 1.5812931,0.45992 0.8784962,0 1.4107615,-0.38757 0.5322653,-0.38757 0.5322653,-1.02836 z" />
      <path
         id="path1606"
         style="font-style:normal;font-variant:normal;font-weight:300;font-stretch:normal;font-family:Roboto;-inkscape-font-specification:'Roboto Light';stroke-width:0.26458237;fill:#ffffff"
         d="m 7.1778302,279.39798 0.020671,0.9095 q 0.3100575,-0.50643 0.7751437,-0.75964 0.4650862,-0.25321 1.0335249,-0.25321 1.3229117,0 1.6794777,1.0852 0.299722,-0.52193 0.800982,-0.80098 0.50126,-0.28422 1.105872,-0.28422 1.798333,0 1.834506,1.96369 v 3.73103 h -0.620115 v -3.68452 q -0.0052,-0.7493 -0.32556,-1.11104 -0.315225,-0.36173 -1.033525,-0.36173 -0.666623,0.0103 -1.126542,0.43408 -0.459919,0.41858 -0.511595,1.02319 v 3.70002 h -0.620115 v -3.73103 q -0.0052,-0.7183 -0.3410629,-1.06969 -0.330728,-0.35657 -1.0231897,-0.35657 -0.5839415,0 -1.0025191,0.3359 -0.4185776,0.33072 -0.6201149,0.98701 v 3.83438 h -0.620115 v -5.59137 z" />
      <path
         id="path1608"
         style="font-style:normal;font-variant:normal;font-weight:300;font-stretch:normal;font-family:Roboto;-inkscape-font-specification:'Roboto Light';stroke-width:0.26458237;fill:#ffffff"
         d="m 19.528453,284.98935 q -0.09302,-0.26355 -0.118856,-0.78031 -0.32556,0.42374 -0.831987,0.65629 -0.50126,0.22737 -1.064531,0.22737 -0.806149,0 -1.307409,-0.44958 -0.496092,-0.44958 -0.496092,-1.13688 0,-0.81648 0.676959,-1.2919 0.682127,-0.47543 1.896518,-0.47543 h 1.121375 v -0.63561 q 0,-0.59945 -0.372069,-0.94051 -0.366902,-0.34623 -1.074866,-0.34623 -0.645953,0 -1.069698,0.33073 -0.423746,0.33072 -0.423746,0.79581 l -0.620114,-0.005 q 0,-0.66662 0.620114,-1.15238 0.620115,-0.49092 1.52445,-0.49092 0.93534,0 1.472773,0.47025 0.5426,0.46509 0.558103,1.30224 v 2.64583 q 0,0.81131 0.170532,1.21439 v 0.062 z m -1.943027,-0.44442 q 0.620115,0 1.105872,-0.29972 0.490924,-0.29972 0.713132,-0.80098 v -1.22989 h -1.105872 q -0.925005,0.0103 -1.446935,0.34106 -0.52193,0.32556 -0.52193,0.89916 0,0.47026 0.346231,0.78032 0.351399,0.31005 0.909502,0.31005 z" />
      <path
         id="path1610"
         style="font-style:normal;font-variant:normal;font-weight:300;font-stretch:normal;font-family:Roboto;-inkscape-font-specification:'Roboto Light';stroke-width:0.26458237;fill:#ffffff"
         d="m 24.246494,279.92508 q -0.19637,-0.0362 -0.418578,-0.0362 -0.578774,0 -0.981848,0.32556 -0.397908,0.3204 -0.568439,0.93534 v 3.83955 h -0.614947 v -5.59137 h 0.604612 l 0.01034,0.88883 q 0.490924,-0.99218 1.576125,-0.99218 0.258382,0 0.408243,0.0672 z" />
      <path
         id="path1612"
         style="font-style:normal;font-variant:normal;font-weight:300;font-stretch:normal;font-family:Roboto;-inkscape-font-specification:'Roboto Light';stroke-width:0.26458237;fill:#ffffff"
         d="m 26.447901,277.96655 v 1.43143 h 1.157548 v 0.50643 h -1.157548 v 3.72585 q 0,0.46509 0.165364,0.69247 0.170532,0.22737 0.563271,0.22737 0.155029,0 0.50126,-0.0517 l 0.02584,0.50642 q -0.242879,0.0879 -0.661456,0.0879 -0.635618,0 -0.925005,-0.3669 -0.289387,-0.37207 -0.289387,-1.09037 v -3.73102 h -1.028357 v -0.50643 h 1.028357 v -1.43143 z" />
      <path
         id="path1614"
         style="font-style:normal;font-variant:normal;font-weight:300;font-stretch:normal;font-family:Roboto;-inkscape-font-specification:'Roboto Light';stroke-width:0.26458237;fill:#ffffff"
         d="m 39.072333,284.98935 h -0.640786 v -3.607 h -4.299463 v 3.607 h -0.635618 v -7.52406 h 0.635618 v 3.37962 h 4.299463 v -3.37962 h 0.640786 z" />
      <path
         id="path1616"
         style="font-style:normal;font-variant:normal;font-weight:300;font-stretch:normal;font-family:Roboto;-inkscape-font-specification:'Roboto Light';stroke-width:0.26458237;fill:#ffffff"
         d="m 40.493429,282.11098 q 0,-0.80615 0.310057,-1.4521 0.315225,-0.64595 0.883664,-1.00252 0.573606,-0.36173 1.297073,-0.36173 1.116207,0 1.808669,0.78548 0.692462,0.78031 0.692462,2.07221 v 0.12919 q 0,0.81132 -0.315225,1.46244 -0.310058,0.64595 -0.878497,0.99735 -0.568438,0.3514 -1.297073,0.3514 -1.11104,0 -1.808669,-0.78031 -0.692461,-0.78548 -0.692461,-2.07738 z m 0.620114,0.17053 q 0,1.00252 0.516763,1.64848 0.52193,0.64078 1.364253,0.64078 0.837155,0 1.353917,-0.64078 0.52193,-0.64596 0.52193,-1.70015 v -0.11886 q 0,-0.64078 -0.23771,-1.17305 -0.237711,-0.53226 -0.666624,-0.82165 -0.428913,-0.29456 -0.981849,-0.29456 -0.826819,0 -1.348749,0.65113 -0.521931,0.64595 -0.521931,1.69498 z" />
      <path
         id="path1618"
         style="font-style:normal;font-variant:normal;font-weight:300;font-stretch:normal;font-family:Roboto;-inkscape-font-specification:'Roboto Light';stroke-width:0.26458237;fill:#ffffff"
         d="m 47.330197,279.39798 0.02067,0.9095 q 0.310058,-0.50643 0.775144,-0.75964 0.465086,-0.25321 1.033525,-0.25321 1.322912,0 1.679478,1.0852 0.299722,-0.52193 0.800982,-0.80098 0.501259,-0.28422 1.105871,-0.28422 1.798334,0 1.834507,1.96369 v 3.73103 h -0.620115 v -3.68452 q -0.0052,-0.7493 -0.32556,-1.11104 -0.315225,-0.36173 -1.033525,-0.36173 -0.666624,0.0103 -1.126542,0.43408 -0.459919,0.41858 -0.511595,1.02319 v 3.70002 h -0.620115 v -3.73103 q -0.0052,-0.7183 -0.341063,-1.06969 -0.330728,-0.35657 -1.02319,-0.35657 -0.583941,0 -1.002519,0.3359 -0.418578,0.33072 -0.620115,0.98701 v 3.83438 H 46.73592 v -5.59137 z" />
      <path
         id="path1620"
         style="font-style:normal;font-variant:normal;font-weight:300;font-stretch:normal;font-family:Roboto;-inkscape-font-specification:'Roboto Light';stroke-width:0.26458237;fill:#ffffff"
         d="m 58.316567,285.0927 q -0.713132,0 -1.291906,-0.3514 -0.573606,-0.3514 -0.893999,-0.97668 -0.320392,-0.63045 -0.320392,-1.41076 v -0.22221 q 0,-0.80615 0.310057,-1.4521 0.315225,-0.64595 0.873329,-1.01285 0.558103,-0.37207 1.209224,-0.37207 1.018022,0 1.612299,0.69763 0.599444,0.69246 0.599444,1.89651 v 0.34624 h -3.989406 v 0.11885 q 0,0.95084 0.542601,1.58646 0.547768,0.63045 1.374588,0.63045 0.496092,0 0.873328,-0.18087 0.382404,-0.18086 0.692462,-0.57877 l 0.387572,0.29456 q -0.682127,0.98701 -1.979201,0.98701 z m -0.113687,-5.27098 q -0.69763,0 -1.178219,0.5116 -0.475421,0.51159 -0.578774,1.37459 h 3.353789 v -0.0672 q -0.02584,-0.80615 -0.459919,-1.31258 -0.43408,-0.50643 -1.136877,-0.50643 z" />
    </g>
    <g
       id="text1404-1"
       style="font-style:normal;font-weight:normal;font-size:10.58329487px;line-height:1.25;font-family:sans-serif;letter-spacing:0px;word-spacing:0px;fill:#ffffff;fill-opacity:1;stroke:none;stroke-width:0.26458237"
       transform="scale(0.9999964,1.0000036)"
       aria-label="HIGH TECH">
      <path
         id="path1623"
         style="font-style:normal;font-variant:normal;font-weight:bold;font-stretch:normal;font-family:Roboto;-inkscape-font-specification:'Roboto Bold';letter-spacing:0.92604166px;stroke-width:0.26458237;fill:#ffffff"
         d="M 6.123635,295.57266 H 4.5733476 v -3.2246 H 1.5502873 v 3.2246 H -1.7695129e-8 V 288.0486 H 1.5502873 v 3.0489 h 3.0230603 v -3.0489 H 6.123635 Z" />
      <path
         id="path1625"
         style="font-style:normal;font-variant:normal;font-weight:bold;font-stretch:normal;font-family:Roboto;-inkscape-font-specification:'Roboto Bold';letter-spacing:0.92604166px;stroke-width:0.26458237;fill:#ffffff"
         d="M 10.057234,295.57266 H 8.5069468 v -7.52406 h 1.5502872 z" />
      <path
         id="path1627"
         style="font-style:normal;font-variant:normal;font-weight:bold;font-stretch:normal;font-family:Roboto;-inkscape-font-specification:'Roboto Bold';letter-spacing:0.92604166px;stroke-width:0.26458237;fill:#ffffff"
         d="m 18.367811,294.62182 q -0.418577,0.50126 -1.183386,0.78031 -0.764808,0.27388 -1.69498,0.27388 -0.976681,0 -1.715652,-0.42374 -0.733802,-0.42891 -1.136877,-1.24023 -0.397907,-0.81132 -0.408242,-1.90685 v -0.5116 q 0,-1.12654 0.377236,-1.94819 0.382404,-0.82682 1.095537,-1.2609 0.718299,-0.43925 1.679478,-0.43925 1.338414,0 2.092887,0.64078 0.754474,0.63562 0.893999,1.85518 h -1.508946 q -0.103352,-0.64595 -0.459918,-0.94567 -0.351399,-0.29973 -0.971514,-0.29973 -0.790646,0 -1.204056,0.59428 -0.41341,0.59428 -0.418578,1.76733 v 0.48059 q 0,1.18338 0.449583,1.788 0.449584,0.60461 1.317745,0.60461 0.873328,0 1.245397,-0.37207 v -1.29708 h -1.410761 v -1.14204 h 2.961048 z" />
      <path
         id="path1629"
         style="font-style:normal;font-variant:normal;font-weight:bold;font-stretch:normal;font-family:Roboto;-inkscape-font-specification:'Roboto Bold';letter-spacing:0.92604166px;stroke-width:0.26458237;fill:#ffffff"
         d="M 26.678387,295.57266 H 25.1281 v -3.2246 h -3.02306 v 3.2246 h -1.550288 v -7.52406 h 1.550288 v 3.0489 h 3.02306 v -3.0489 h 1.550287 z" />
      <path
         id="path1631"
         style="font-style:normal;font-variant:normal;font-weight:bold;font-stretch:normal;font-family:Roboto;-inkscape-font-specification:'Roboto Bold';letter-spacing:0.92604166px;stroke-width:0.26458237;fill:#ffffff"
         d="m 37.889039,289.30433 h -2.30476 v 6.26833 h -1.550288 v -6.26833 h -2.273754 v -1.25573 h 6.128802 z" />
      <path
         id="path1633"
         style="font-style:normal;font-variant:normal;font-weight:bold;font-stretch:normal;font-family:Roboto;-inkscape-font-specification:'Roboto Bold';letter-spacing:0.92604166px;stroke-width:0.26458237;fill:#ffffff"
         d="m 44.23075,292.31189 h -2.976552 v 2.01537 h 3.493314 v 1.2454 h -5.043601 v -7.52406 h 5.033266 v 1.25573 h -3.482979 v 1.79317 h 2.976552 z" />
      <path
         id="path1635"
         style="font-style:normal;font-variant:normal;font-weight:bold;font-stretch:normal;font-family:Roboto;-inkscape-font-specification:'Roboto Bold';letter-spacing:0.92604166px;stroke-width:0.26458237;fill:#ffffff"
         d="m 52.489652,293.06636 q -0.08785,1.2144 -0.899167,1.91203 -0.806149,0.69762 -2.129061,0.69762 -1.446935,0 -2.278922,-0.97151 -0.82682,-0.97668 -0.82682,-2.67683 v -0.45992 q 0,-1.0852 0.382404,-1.91202 0.382404,-0.82682 1.090369,-1.26607 0.713132,-0.44441 1.65364,-0.44441 1.302241,0 2.098055,0.69763 0.795814,0.69763 0.919837,1.95853 H 50.9497 q -0.05684,-0.72864 -0.408242,-1.0542 -0.346231,-0.33073 -1.059363,-0.33073 -0.775144,0 -1.162716,0.55811 -0.382404,0.55293 -0.392739,1.72082 v 0.56844 q 0,1.21955 0.366901,1.78283 0.372069,0.56327 1.167883,0.56327 0.7183,0 1.069698,-0.32556 0.356567,-0.33073 0.408243,-1.01803 z" />
      <path
         id="path1637"
         style="font-style:normal;font-variant:normal;font-weight:bold;font-stretch:normal;font-family:Roboto;-inkscape-font-specification:'Roboto Bold';letter-spacing:0.92604166px;stroke-width:0.26458237;fill:#ffffff"
         d="m 60.557351,295.57266 h -1.550288 v -3.2246 h -3.02306 v 3.2246 h -1.550287 v -7.52406 h 1.550287 v 3.0489 h 3.02306 v -3.0489 h 1.550288 z" />
    </g>
  </g>
</svg>
