<svg xmlns="http://www.w3.org/2000/svg" style="display: none;">
  
    <symbol id="icon-smart-lock-icon" viewBox="0 0 512 512">
      <path d="m439 290l-141 0 0-232c0-32-26-58-58-58l-167 0c-32 0-58 26-58 58l0 396c0 32 26 58 58 58l167 0c32 0 58-26 58-58l0-38 141 0c32 0 58-26 58-58l0-10c0-32-26-58-58-58z m-180 164c0 11-8 20-19 20l-167 0c-10 0-19-9-19-20l0-396c0-11 9-20 19-20l167 0c11 0 19 9 19 20l0 232-119 0c-32 0-58 26-58 58l0 10c0 32 26 58 58 58l119 0z m199-96c0 11-9 19-19 19l-299 0c-11 0-20-8-20-19l0-10c0-10 9-19 20-19l299 0c10 0 19 9 19 19l0 10z m-239-126c6 0 11-2 14-6 4-3 6-8 6-13 0-6-2-11-6-14-3-4-8-6-14-6-5 0-10 2-13 6-4 3-6 8-6 14 0 5 2 10 6 13 3 4 8 6 13 6z m-62 0c5 0 10-2 14-6 3-3 5-8 5-13 0-6-2-11-5-14-4-4-9-6-14-6-6 0-11 2-14 6-4 3-6 8-6 14 0 5 2 10 6 13 3 4 8 6 14 6z m-49-6c3-3 5-8 5-13 0-6-2-11-5-14-4-4-9-6-14-6-6 0-11 2-14 6-4 3-6 8-6 14 0 5 2 10 6 13 3 4 8 6 14 6 5 0 10-2 14-6z m111-57c6 0 11-2 14-5 4-4 6-8 6-14 0-6-2-10-6-14-3-3-8-5-14-5-5 0-10 2-13 5-4 4-6 8-6 14 0 6 2 10 6 14 3 4 8 5 13 5z m-62 0c5 0 10-2 14-5 3-4 5-8 5-14 0-6-2-10-5-14-4-3-9-5-14-5-6 0-11 2-14 5-4 4-6 8-6 14 0 6 2 10 6 14 3 4 8 5 14 5z m-63 0c5 0 10-2 14-5 3-4 5-8 5-14 0-6-2-10-5-14-4-3-9-5-14-5-6 0-11 2-14 5-4 4-6 8-6 14 0 6 2 10 6 14 3 4 8 5 14 5z m125-62c6 0 11-2 14-6 4-3 6-8 6-14 0-5-2-10-6-13-3-4-8-6-14-6-5 0-10 2-13 6-4 3-6 8-6 13 0 6 2 11 6 14 3 4 8 6 13 6z m-62 0c5 0 10-2 14-6 3-3 5-8 5-14 0-5-2-10-5-13-4-4-9-6-14-6-6 0-11 2-14 6-4 3-6 8-6 13 0 6 2 11 6 14 3 4 8 6 14 6z m-63 0c5 0 10-2 14-6 3-3 5-8 5-14 0-5-2-10-5-13-4-4-9-6-14-6-6 0-11 2-14 6-4 3-6 8-6 13 0 6 2 11 6 14 3 4 8 6 14 6z"/>
    </symbol>
  
</svg>
