<svg xmlns="http://www.w3.org/2000/svg" style="display: none;">
  
    <symbol id="icon-thermostat-icon" viewBox="0 0 512 512">
      <path d="m306 268l0-196c0-19-7-37-21-51-13-13-32-21-50-21-40 0-71 32-71 72l0 193c-40 24-64 67-64 114 0 73 59 133 132 133 73 0 132-60 132-133 0-45-22-86-58-111z m-74 214c-56 0-103-46-103-103 0-39 22-74 56-92l8-4 0-211c0-23 19-42 42-42 11 0 21 4 29 12 8 8 12 18 12 30l0 213 8 5c31 18 51 52 51 89 0 57-46 103-103 103z m17-160l0-181c0-8-7-15-15-15-8 0-15 7-15 15l0 180c-26 6-46 30-46 58 0 33 26 60 59 60 33 0 59-27 59-60 0-27-18-49-42-57z m148-208l-54 0c-8 0-15 7-15 15 0 8 7 15 15 15l54 0c9 0 15-7 15-15 0-8-6-15-15-15z m0 47l-54 0c-8 0-15 7-15 15 0 8 7 15 15 15l54 0c9 0 15-7 15-15 0-8-6-15-15-15z m0 47l-54 0c-8 0-15 7-15 15 0 9 7 15 15 15l54 0c9 0 15-6 15-15 0-8-6-15-15-15z"/>
    </symbol>
  
</svg>
